<svg width="280" height="279" xmlns="http://www.w3.org/2000/svg" xmlns:xlink="http://www.w3.org/1999/xlink" xml:space="preserve" overflow="hidden"><defs><filter id="fx0" x="-10%" y="-10%" width="120%" height="120%" filterUnits="userSpaceOnUse" primitiveUnits="userSpaceOnUse"><feComponentTransfer color-interpolation-filters="sRGB"><feFuncR type="discrete" tableValues="0 0"/><feFuncG type="discrete" tableValues="0 0"/><feFuncB type="discrete" tableValues="0 0"/><feFuncA type="linear" slope="1" intercept="0"/></feComponentTransfer><feGaussianBlur stdDeviation="1.77778 1.77778"/></filter><clipPath id="clip1"><rect x="228" y="26" width="280" height="279"/></clipPath><clipPath id="clip2"><rect x="11" y="60" width="260" height="161"/></clipPath></defs><g clip-path="url(#clip1)" transform="translate(-228 -26)"><g clip-path="url(#clip2)" filter="url(#fx0)" transform="translate(227 24)"><g><g><g><g><path d="M132.346 209.45C130.95 209.45 129.275 209.171 128.158 208.054 125.925 206.1 125.646 202.471 127.6 200.238L138.488 187.675C140.442 185.442 144.071 185.163 146.304 187.117 148.538 189.071 148.817 192.7 146.863 194.933L135.975 207.496C135.138 208.613 133.742 209.171 132.346 209.45Z" fill="#D2991F"/><path d="M115.317 203.029C113.362 203.308 111.688 202.75 110.013 201.354 107.221 198.842 106.942 194.375 109.454 191.583L122.296 176.788C124.808 173.996 129.275 173.717 132.067 176.229 134.858 178.742 135.138 183.208 132.625 186L119.783 200.796C118.667 202.192 116.992 203.029 115.317 203.029Z" fill="#D2991F"/><path d="M97.7292 192.7C95.4958 192.979 93.2625 192.142 91.5875 190.746 88.2375 187.675 87.6792 182.371 90.75 179.021L103.592 164.225C106.663 160.875 111.967 160.317 115.317 163.387 118.667 166.458 119.225 171.762 116.154 175.113L103.312 189.908C101.917 191.583 99.6833 192.7 97.7292 192.7Z" fill="#D2991F"/><path d="M77.35 182.371C75.1167 182.65 72.8833 181.812 71.2083 180.417 67.8583 177.346 67.3 172.042 70.3708 168.692L85.1667 151.942C88.2375 148.592 93.5417 148.033 96.8917 151.104 100.242 154.175 100.8 159.479 97.7292 162.829L82.9333 179.579C81.2583 181.254 79.3042 182.092 77.35 182.371Z" fill="#D2991F"/><path d="M19.8417 120.954 41.3375 134.075C43.85 135.75 47.4792 134.913 48.875 132.121L74.8375 89.1292C76.5125 86.6167 75.675 82.9875 72.8833 81.5917L51.6667 68.4708 19.8417 120.954Z" fill="#D2991F"/><path d="M200.742 157.525 155.796 119 152.725 116.208 133.462 138.262C130.671 141.612 126.763 143.567 122.296 143.846 121.737 143.846 121.179 143.846 120.9 143.846 116.713 143.846 112.804 142.45 110.013 139.658 103.033 133.517 102.475 122.908 108.338 115.929L124.808 96.9458C111.967 95.2708 95.4958 101.971 78.4667 93.5958L54.1792 133.796 73.1625 155.85 80.4208 147.475C82.9333 144.404 86.8417 142.729 91.0292 142.729L91.0292 142.729C94.3792 142.729 97.7292 143.846 100.242 146.079 103.312 148.592 104.708 152.221 104.987 156.129 106.383 155.571 108.058 155.292 109.733 155.292 113.083 155.292 116.433 156.408 118.946 158.642 122.017 161.433 123.692 165.062 123.692 168.971 124.808 168.692 126.204 168.413 127.321 168.413L127.321 168.413C130.392 168.413 133.183 169.529 135.696 171.483 138.208 173.717 139.604 176.788 139.883 180.137 140.721 179.858 141.838 179.579 142.954 179.579L142.954 179.579C145.746 179.579 148.258 180.417 150.213 182.371 152.446 184.325 153.842 187.117 154.121 189.908 154.4 192.979 153.283 195.771 151.329 198.004L141.838 208.892 145.746 211.963C147.7 213.079 149.933 213.917 152.446 213.638 158.588 213.079 163.054 207.775 162.496 201.633 162.496 201.633 162.496 201.354 162.496 201.354 163.333 201.633 164.45 201.633 165.288 201.633 171.429 201.075 175.896 195.771 175.338 189.629 175.338 189.629 175.338 189.35 175.338 189.35 176.175 189.629 177.292 189.629 178.129 189.629 184.271 189.071 188.738 183.767 188.179 177.625 188.179 177.067 187.9 176.508 187.9 175.95 189.575 176.788 191.529 177.346 193.763 177.067 199.904 176.508 204.371 171.204 203.812 165.062 204.092 161.992 202.696 159.479 200.742 157.525Z" fill="#D2991F"/><path d="M262.158 120.954 240.662 134.075C238.15 135.75 234.521 134.913 233.125 132.121L207.162 89.1292C205.488 86.6167 206.325 82.9875 209.117 81.5917L230.613 68.4708 262.158 120.954Z" fill="#D2991F"/><path d="M203.812 94.7125C180.642 103.088 163.892 94.9917 145.188 91.3625 144.908 91.3625 143.792 91.0833 143.792 91.0833 140.442 90.8042 136.812 91.9208 134.3 94.7125L112.246 119.838C108.058 124.583 108.617 131.562 113.362 135.471 115.875 137.425 118.667 138.542 121.737 138.262 124.529 137.983 127.321 136.867 129.275 134.354 129.275 134.354 152.167 108.113 152.167 108.113L204.371 153.058 204.371 153.058 204.371 153.058C205.767 154.454 206.325 155.012 207.442 156.688L227.542 133.517 203.812 94.7125Z" fill="#D2991F"/></g></g></g></g></g><g><g><g><path d="M359.346 228.117C357.95 228.117 356.275 227.838 355.158 226.721 352.925 224.767 352.646 221.138 354.6 218.904L365.487 206.342C367.442 204.108 371.071 203.829 373.304 205.783 375.538 207.738 375.817 211.367 373.862 213.6L362.975 226.162C362.138 227.279 360.742 227.838 359.346 228.117Z" fill="#D2991F"/><path d="M342.317 221.696C340.362 221.975 338.688 221.417 337.013 220.021 334.221 217.508 333.942 213.042 336.454 210.25L349.296 195.454C351.808 192.663 356.275 192.383 359.067 194.896 361.858 197.408 362.138 201.875 359.625 204.667L346.783 219.463C345.667 220.858 343.992 221.696 342.317 221.696Z" fill="#D2991F"/><path d="M324.729 211.367C322.496 211.646 320.263 210.808 318.587 209.412 315.237 206.342 314.679 201.038 317.75 197.688L330.592 182.892C333.663 179.542 338.967 178.983 342.317 182.054 345.667 185.125 346.225 190.429 343.154 193.779L330.312 208.575C328.917 210.25 326.683 211.367 324.729 211.367Z" fill="#D2991F"/><path d="M304.35 201.038C302.117 201.317 299.883 200.479 298.208 199.083 294.858 196.013 294.3 190.708 297.371 187.358L312.167 170.608C315.237 167.258 320.542 166.7 323.892 169.771 327.242 172.842 327.8 178.146 324.729 181.496L309.933 198.246C308.258 199.921 306.304 200.758 304.35 201.038Z" fill="#D2991F"/><path d="M246.842 139.621 268.337 152.742C270.85 154.417 274.479 153.579 275.875 150.788L301.837 107.796C303.513 105.283 302.675 101.654 299.883 100.258L278.667 87.1375 246.842 139.621Z" fill="#D2991F"/><path d="M427.742 176.192 382.796 137.667 379.725 134.875 360.462 156.929C357.671 160.279 353.763 162.233 349.296 162.513 348.737 162.513 348.179 162.513 347.9 162.513 343.712 162.513 339.804 161.117 337.013 158.325 330.033 152.183 329.475 141.575 335.337 134.596L351.808 115.612C338.967 113.938 322.496 120.638 305.467 112.263L281.179 152.462 300.163 174.517 307.421 166.142C309.933 163.071 313.842 161.396 318.029 161.396L318.029 161.396C321.379 161.396 324.729 162.513 327.242 164.746 330.312 167.258 331.708 170.888 331.987 174.796 333.383 174.238 335.058 173.958 336.733 173.958 340.083 173.958 343.433 175.075 345.946 177.308 349.017 180.1 350.692 183.729 350.692 187.638 351.808 187.358 353.204 187.079 354.321 187.079L354.321 187.079C357.392 187.079 360.183 188.196 362.696 190.15 365.208 192.383 366.604 195.454 366.883 198.804 367.721 198.525 368.838 198.246 369.954 198.246L369.954 198.246C372.746 198.246 375.258 199.083 377.213 201.038 379.446 202.992 380.842 205.783 381.121 208.575 381.4 211.646 380.283 214.438 378.329 216.671L368.838 227.558 372.746 230.629C374.7 231.746 376.933 232.583 379.446 232.304 385.588 231.746 390.054 226.442 389.496 220.3 389.496 220.3 389.496 220.021 389.496 220.021 390.333 220.3 391.45 220.3 392.288 220.3 398.429 219.742 402.896 214.438 402.338 208.296 402.338 208.296 402.338 208.017 402.338 208.017 403.175 208.296 404.292 208.296 405.129 208.296 411.271 207.738 415.737 202.433 415.179 196.292 415.179 195.733 414.9 195.175 414.9 194.617 416.575 195.454 418.529 196.013 420.763 195.733 426.904 195.175 431.371 189.871 430.812 183.729 431.092 180.658 429.696 178.146 427.742 176.192Z" fill="#D2991F"/><path d="M489.158 139.621 467.662 152.742C465.15 154.417 461.521 153.579 460.125 150.788L434.162 107.796C432.487 105.283 433.325 101.654 436.117 100.258L457.612 87.1375 489.158 139.621Z" fill="#D2991F"/><path d="M430.812 113.379C407.642 121.754 390.892 113.658 372.188 110.029 371.908 110.029 370.792 109.75 370.792 109.75 367.442 109.471 363.812 110.588 361.3 113.379L339.246 138.504C335.058 143.25 335.617 150.229 340.362 154.138 342.875 156.092 345.667 157.208 348.737 156.929 351.529 156.65 354.321 155.533 356.275 153.021 356.275 153.021 379.167 126.779 379.167 126.779L431.371 171.725 431.371 171.725 431.371 171.725C432.767 173.121 433.325 173.679 434.442 175.354L454.542 152.183 430.812 113.379Z" fill="#D2991F"/></g></g></g></g></svg>