<svg width="255" height="255" xmlns="http://www.w3.org/2000/svg" xmlns:xlink="http://www.w3.org/1999/xlink" xml:space="preserve" overflow="hidden"><defs><filter id="fx0" x="-10%" y="-10%" width="120%" height="120%" filterUnits="userSpaceOnUse" primitiveUnits="userSpaceOnUse"><feComponentTransfer color-interpolation-filters="sRGB"><feFuncR type="discrete" tableValues="0 0"/><feFuncG type="discrete" tableValues="0 0"/><feFuncB type="discrete" tableValues="0 0"/><feFuncA type="linear" slope="1" intercept="0"/></feComponentTransfer><feGaussianBlur stdDeviation="1.77778 1.77778"/></filter><clipPath id="clip1"><rect x="494" y="48" width="255" height="255"/></clipPath><clipPath id="clip2"><rect x="19" y="27" width="215" height="205"/></clipPath></defs><g clip-path="url(#clip1)" transform="translate(-494 -48)"><g clip-path="url(#clip2)" filter="url(#fx0)" transform="translate(493 46)"><g><g><g><g><path d="M195.337 125.018C207.918 125.018 218.118 114.819 218.118 102.237 218.118 89.6554 207.918 79.4559 195.337 79.4559 182.755 79.4559 172.555 89.6554 172.555 102.237 172.558 103.382 172.651 104.524 172.834 105.654L146.483 116.665C141.758 108.326 133.496 102.589 124.031 101.073L124.031 72.7734C136.298 69.9774 143.976 57.7664 141.18 45.4992 138.384 33.2323 126.173 25.5542 113.906 28.3503 101.639 31.146 93.9613 43.3573 96.757 55.6242 98.7028 64.1614 105.369 70.8277 113.906 72.7734L113.906 101.047C104.531 102.564 96.333 108.214 91.5806 116.438L65.9391 105.73C67.8613 93.2963 59.3398 81.6581 46.9058 79.7359 34.4718 77.8137 22.8338 86.3351 20.9115 98.7691 18.9892 111.203 27.5106 122.841 39.9446 124.764 48.5413 126.092 57.1442 122.41 62.1169 115.273L87.9862 125.854C86.1519 134.714 88.2174 143.935 93.6562 151.166L72.7228 172.302C62.0154 165.695 47.9793 169.019 41.3723 179.726 34.7652 190.434 38.0892 204.47 48.7967 211.077 59.5039 217.684 73.5399 214.36 80.147 203.653 84.7647 196.169 84.6632 186.696 79.8862 179.314L100.972 158.228C111.8 165.751 126.163 165.751 136.991 158.228L158.077 179.288C151.235 189.848 154.25 203.953 164.809 210.795 175.368 217.636 189.474 214.622 196.315 204.063 203.156 193.503 200.142 179.398 189.583 172.556 182.147 167.739 172.593 167.669 165.088 172.378L144.281 151.293C148.457 145.826 150.717 139.137 150.711 132.258 150.702 130.193 150.498 128.134 150.103 126.107L176.707 115.223C180.945 121.333 187.9 124.99 195.337 125.018ZM195.337 88.29C198.873 88.29 201.741 91.1571 201.741 94.6941 201.741 98.231 198.873 101.098 195.337 101.098 191.8 101.098 188.932 98.231 188.932 94.6941 188.932 94.6857 188.932 94.6771 188.932 94.6688 188.96 91.1475 191.815 88.3037 195.337 88.29ZM182.68 109.046C182.705 108.051 183.18 107.12 183.971 106.515 185.864 105.164 187.968 104.138 190.198 103.478 191.91 102.98 193.681 102.716 195.463 102.693 197.247 102.695 199.021 102.96 200.728 103.478 202.982 104.074 205.098 105.105 206.955 106.515 207.731 107.13 208.195 108.057 208.221 109.046L208.221 113.906 182.554 113.906ZM43.5881 88.29C47.125 88.29 49.9922 91.1571 49.9922 94.6941 49.9922 98.231 47.1248 101.098 43.5881 101.098 40.0512 101.098 37.1841 98.231 37.1841 94.6941 37.1841 94.6857 37.1841 94.6771 37.1841 94.6688 37.2104 91.1961 39.9897 88.372 43.4616 88.29ZM56.2444 113.932 30.6787 113.932 30.6787 109.046C30.7038 108.051 31.1784 107.12 31.9697 106.515 33.8626 105.164 35.9668 104.138 38.1966 103.478 39.9082 102.98 41.6793 102.716 43.4616 102.693 45.2456 102.695 47.0195 102.96 48.7266 103.478 50.9806 104.074 53.0963 105.105 54.9534 106.515 55.7295 107.13 56.193 108.057 56.2191 109.046ZM60.75 177.744C64.273 177.744 67.1288 180.6 67.1288 184.123 67.1288 187.646 64.273 190.502 60.75 190.502 57.227 190.502 54.3713 187.646 54.3713 184.123 54.3713 180.6 57.227 177.744 60.75 177.744ZM73.4062 203.361 48.0938 203.361 48.0938 198.475C48.1163 197.485 48.5805 196.556 49.3594 195.944 51.2505 194.596 53.3557 193.578 55.5862 192.932 57.2635 192.429 58.9996 192.148 60.75 192.097 62.5353 192.105 64.3097 192.378 66.015 192.907 68.2683 193.492 70.3842 194.515 72.2419 195.919 73.0207 196.531 73.485 197.46 73.5075 198.45ZM118.969 36.6272C122.492 36.6272 125.348 39.4832 125.348 43.0059 125.348 46.5289 122.491 49.3847 118.969 49.3847 115.456 49.3847 112.604 46.5441 112.59 43.0312 112.576 39.5085 115.42 36.6411 118.943 36.6272 118.952 36.6272 118.96 36.6272 118.969 36.6272ZM106.312 62.2434 106.312 57.3581C106.335 56.3676 106.799 55.4392 107.578 54.8269 109.469 53.479 111.574 52.4607 113.805 51.8147 115.482 51.3115 117.218 51.0305 118.969 50.9794 120.754 50.9877 122.528 51.2608 124.234 51.7894 126.487 52.3746 128.603 53.3982 130.461 54.8016 131.239 55.4139 131.704 56.3423 131.726 57.3328L131.726 62.2181ZM118.969 112.868C123.876 112.855 127.865 116.821 127.879 121.728 127.893 126.635 123.926 130.624 119.019 130.638 114.113 130.652 110.123 126.685 110.109 121.778 110.109 121.77 110.109 121.761 110.109 121.753 110.109 116.856 114.072 112.882 118.969 112.868ZM136.688 148.483 101.25 148.483 101.25 141.75C101.284 140.364 101.933 139.065 103.022 138.206 105.649 136.319 108.576 134.89 111.679 133.979 114.048 133.281 116.499 132.898 118.969 132.84 121.447 132.847 123.911 133.214 126.284 133.928 129.424 134.744 132.367 136.181 134.941 138.156 136.034 139.03 136.675 140.35 136.688 141.75ZM177.188 177.744C180.71 177.744 183.566 180.6 183.566 184.123 183.566 187.646 180.71 190.502 177.188 190.502 173.665 190.502 170.809 187.646 170.809 184.123 170.809 180.6 173.665 177.744 177.188 177.744ZM164.531 198.475C164.554 197.485 165.018 196.556 165.797 195.944 167.688 194.596 169.793 193.578 172.024 192.932 173.701 192.429 175.437 192.148 177.188 192.097 178.973 192.105 180.747 192.378 182.452 192.907 184.706 193.492 186.822 194.515 188.679 195.919 189.458 196.531 189.922 197.46 189.945 198.45L189.945 203.335 164.531 203.335Z" fill="#D2991F" transform="matrix(1 0 0 1.00412 7 7.33333)"/></g></g></g></g></g><g><g><g><path d="M195.337 125.018C207.918 125.018 218.118 114.819 218.118 102.237 218.118 89.6554 207.918 79.4559 195.337 79.4559 182.755 79.4559 172.555 89.6554 172.555 102.237 172.558 103.382 172.651 104.524 172.834 105.654L146.483 116.665C141.758 108.326 133.496 102.589 124.031 101.073L124.031 72.7734C136.298 69.9774 143.976 57.7664 141.18 45.4992 138.384 33.2323 126.173 25.5542 113.906 28.3503 101.639 31.146 93.9613 43.3573 96.757 55.6242 98.7028 64.1614 105.369 70.8277 113.906 72.7734L113.906 101.047C104.531 102.564 96.333 108.214 91.5806 116.438L65.9391 105.73C67.8613 93.2963 59.3398 81.6581 46.9058 79.7359 34.4718 77.8137 22.8338 86.3351 20.9115 98.7691 18.9892 111.203 27.5106 122.841 39.9446 124.764 48.5413 126.092 57.1442 122.41 62.1169 115.273L87.9862 125.854C86.1519 134.714 88.2174 143.935 93.6562 151.166L72.7228 172.302C62.0154 165.695 47.9793 169.019 41.3723 179.726 34.7652 190.434 38.0892 204.47 48.7967 211.077 59.5039 217.684 73.5399 214.36 80.147 203.653 84.7647 196.169 84.6632 186.696 79.8862 179.314L100.972 158.228C111.8 165.751 126.163 165.751 136.991 158.228L158.077 179.288C151.235 189.848 154.25 203.953 164.809 210.795 175.368 217.636 189.474 214.622 196.315 204.063 203.156 193.503 200.142 179.398 189.583 172.556 182.147 167.739 172.593 167.669 165.088 172.378L144.281 151.293C148.457 145.826 150.717 139.137 150.711 132.258 150.702 130.193 150.498 128.134 150.103 126.107L176.707 115.223C180.945 121.333 187.9 124.99 195.337 125.018ZM195.337 88.29C198.873 88.29 201.741 91.1571 201.741 94.6941 201.741 98.231 198.873 101.098 195.337 101.098 191.8 101.098 188.932 98.231 188.932 94.6941 188.932 94.6857 188.932 94.6771 188.932 94.6688 188.96 91.1475 191.815 88.3037 195.337 88.29ZM182.68 109.046C182.705 108.051 183.18 107.12 183.971 106.515 185.864 105.164 187.968 104.138 190.198 103.478 191.91 102.98 193.681 102.716 195.463 102.693 197.247 102.695 199.021 102.96 200.728 103.478 202.982 104.074 205.098 105.105 206.955 106.515 207.731 107.13 208.195 108.057 208.221 109.046L208.221 113.906 182.554 113.906ZM43.5881 88.29C47.125 88.29 49.9922 91.1571 49.9922 94.6941 49.9922 98.231 47.1248 101.098 43.5881 101.098 40.0512 101.098 37.1841 98.231 37.1841 94.6941 37.1841 94.6857 37.1841 94.6771 37.1841 94.6688 37.2104 91.1961 39.9897 88.372 43.4616 88.29ZM56.2444 113.932 30.6787 113.932 30.6787 109.046C30.7038 108.051 31.1784 107.12 31.9697 106.515 33.8626 105.164 35.9668 104.138 38.1966 103.478 39.9082 102.98 41.6793 102.716 43.4616 102.693 45.2456 102.695 47.0195 102.96 48.7266 103.478 50.9806 104.074 53.0963 105.105 54.9534 106.515 55.7295 107.13 56.193 108.057 56.2191 109.046ZM60.75 177.744C64.273 177.744 67.1288 180.6 67.1288 184.123 67.1288 187.646 64.273 190.502 60.75 190.502 57.227 190.502 54.3713 187.646 54.3713 184.123 54.3713 180.6 57.227 177.744 60.75 177.744ZM73.4062 203.361 48.0938 203.361 48.0938 198.475C48.1163 197.485 48.5805 196.556 49.3594 195.944 51.2505 194.596 53.3557 193.578 55.5862 192.932 57.2635 192.429 58.9996 192.148 60.75 192.097 62.5353 192.105 64.3097 192.378 66.015 192.907 68.2683 193.492 70.3842 194.515 72.2419 195.919 73.0207 196.531 73.485 197.46 73.5075 198.45ZM118.969 36.6272C122.492 36.6272 125.348 39.4832 125.348 43.0059 125.348 46.5289 122.491 49.3847 118.969 49.3847 115.456 49.3847 112.604 46.5441 112.59 43.0312 112.576 39.5085 115.42 36.6411 118.943 36.6272 118.952 36.6272 118.96 36.6272 118.969 36.6272ZM106.312 62.2434 106.312 57.3581C106.335 56.3676 106.799 55.4392 107.578 54.8269 109.469 53.479 111.574 52.4607 113.805 51.8147 115.482 51.3115 117.218 51.0305 118.969 50.9794 120.754 50.9877 122.528 51.2608 124.234 51.7894 126.487 52.3746 128.603 53.3982 130.461 54.8016 131.239 55.4139 131.704 56.3423 131.726 57.3328L131.726 62.2181ZM118.969 112.868C123.876 112.855 127.865 116.821 127.879 121.728 127.893 126.635 123.926 130.624 119.019 130.638 114.113 130.652 110.123 126.685 110.109 121.778 110.109 121.77 110.109 121.761 110.109 121.753 110.109 116.856 114.072 112.882 118.969 112.868ZM136.688 148.483 101.25 148.483 101.25 141.75C101.284 140.364 101.933 139.065 103.022 138.206 105.649 136.319 108.576 134.89 111.679 133.979 114.048 133.281 116.499 132.898 118.969 132.84 121.447 132.847 123.911 133.214 126.284 133.928 129.424 134.744 132.367 136.181 134.941 138.156 136.034 139.03 136.675 140.35 136.688 141.75ZM177.188 177.744C180.71 177.744 183.566 180.6 183.566 184.123 183.566 187.646 180.71 190.502 177.188 190.502 173.665 190.502 170.809 187.646 170.809 184.123 170.809 180.6 173.665 177.744 177.188 177.744ZM164.531 198.475C164.554 197.485 165.018 196.556 165.797 195.944 167.688 194.596 169.793 193.578 172.024 192.932 173.701 192.429 175.437 192.148 177.188 192.097 178.973 192.105 180.747 192.378 182.452 192.907 184.706 193.492 186.822 194.515 188.679 195.919 189.458 196.531 189.922 197.46 189.945 198.45L189.945 203.335 164.531 203.335Z" fill="#D2991F" transform="matrix(1 0 0 1.00412 500 48)"/></g></g></g></g></svg>