<svg width="254" height="253" xmlns="http://www.w3.org/2000/svg" xmlns:xlink="http://www.w3.org/1999/xlink" xml:space="preserve" overflow="hidden"><defs><filter id="fx0" x="-10%" y="-10%" width="120%" height="120%" filterUnits="userSpaceOnUse" primitiveUnits="userSpaceOnUse"><feComponentTransfer color-interpolation-filters="sRGB"><feFuncR type="discrete" tableValues="0 0"/><feFuncG type="discrete" tableValues="0 0"/><feFuncB type="discrete" tableValues="0 0"/><feFuncA type="linear" slope="1" intercept="0"/></feComponentTransfer><feGaussianBlur stdDeviation="1.77778 1.77778"/></filter><clipPath id="clip1"><rect x="791" y="38" width="254" height="253"/></clipPath><clipPath id="clip2"><rect x="19" y="58" width="217" height="139"/></clipPath></defs><g clip-path="url(#clip1)" transform="translate(-791 -38)"><g clip-path="url(#clip2)" filter="url(#fx0)" transform="translate(790 36)"><g><g><g><g><path d="M163.04 164.633C182.702 145.727 183.71 114.469 165.056 94.3021 184.971 104.637 201.356 120.519 210.935 131.106 200.852 140.937 183.71 155.558 163.04 164.633ZM63.9708 112.704C72.2896 105.646 81.1125 99.5958 90.6917 94.5542 72.2896 114.721 73.2979 145.727 92.9604 164.633 72.2896 155.558 54.8958 140.937 45.0646 131.106 50.8625 124.552 57.1646 118.502 63.9708 112.704L63.9708 112.704ZM128 168.667C105.817 168.667 87.6667 150.517 87.6667 128.333 87.6667 106.15 105.817 88 128 88 150.183 88 168.333 106.15 168.333 128.333 168.333 150.517 150.183 168.667 128 168.667ZM226.06 124.048C211.44 106.906 173.123 67.8333 128 67.8333 82.8771 67.8333 44.5604 106.906 29.9396 124.048 26.1583 128.585 26.4104 134.887 30.4438 139.173 45.3167 154.802 83.3812 188.833 128 188.833 172.619 188.833 210.683 154.802 225.808 139.173 229.59 135.14 229.842 128.585 226.06 124.048Z" fill="#D2991F"/><path d="M153.208 128.333C153.208 142.255 141.922 153.542 128 153.542 114.078 153.542 102.792 142.255 102.792 128.333 102.792 114.411 114.078 103.125 128 103.125 141.922 103.125 153.208 114.411 153.208 128.333Z" fill="#D2991F"/></g></g></g></g></g><g><g><g><path d="M953.04 195.3C972.702 176.394 973.71 145.135 955.056 124.969 974.971 135.304 991.356 151.185 1000.94 161.773 990.852 171.604 973.71 186.225 953.04 195.3ZM853.971 143.371C862.29 136.312 871.112 130.262 880.692 125.221 862.29 145.387 863.298 176.394 882.96 195.3 862.29 186.225 844.896 171.604 835.065 161.773 840.862 155.219 847.165 149.169 853.971 143.371L853.971 143.371ZM918 199.333C895.817 199.333 877.667 181.183 877.667 159 877.667 136.817 895.817 118.667 918 118.667 940.183 118.667 958.333 136.817 958.333 159 958.333 181.183 940.183 199.333 918 199.333ZM1016.06 154.715C1001.44 137.573 963.123 98.5 918 98.5 872.877 98.5 834.56 137.573 819.94 154.715 816.158 159.252 816.41 165.554 820.444 169.84 835.317 185.469 873.381 219.5 918 219.5 962.619 219.5 1000.68 185.469 1015.81 169.84 1019.59 165.806 1019.84 159.252 1016.06 154.715Z" fill="#D2991F"/><path d="M943.208 159C943.208 172.922 931.922 184.208 918 184.208 904.078 184.208 892.792 172.922 892.792 159 892.792 145.078 904.078 133.792 918 133.792 931.922 133.792 943.208 145.078 943.208 159Z" fill="#D2991F"/></g></g></g></g></svg>